<svg width="22" height="22" viewBox="0 0 22 22" fill="none" xmlns="http://www.w3.org/2000/svg">
    <mask id="path-1-inside-1_599_3864" fill="white">
        <path d="M16.5 19.1641C15.7884 19.1641 15.2109 18.5866 15.2109 17.875C15.2109 17.1634 15.7884 16.5859 16.5 16.5859C17.2116 16.5859 17.7891 17.1634 17.7891 17.875C17.7891 18.5866 17.2116 19.1641 16.5 19.1641ZM16.5 17.1016C16.0737 17.1016 15.7266 17.4487 15.7266 17.875C15.7266 18.3013 16.0737 18.6484 16.5 18.6484C16.9263 18.6484 17.2734 18.3013 17.2734 17.875C17.2734 17.4487 16.9263 17.1016 16.5 17.1016Z"/>
    </mask>
    <path d="M16.5 19.1641C15.7884 19.1641 15.2109 18.5866 15.2109 17.875C15.2109 17.1634 15.7884 16.5859 16.5 16.5859C17.2116 16.5859 17.7891 17.1634 17.7891 17.875C17.7891 18.5866 17.2116 19.1641 16.5 19.1641ZM16.5 17.1016C16.0737 17.1016 15.7266 17.4487 15.7266 17.875C15.7266 18.3013 16.0737 18.6484 16.5 18.6484C16.9263 18.6484 17.2734 18.3013 17.2734 17.875C17.2734 17.4487 16.9263 17.1016 16.5 17.1016Z"
          fill="#202020"/>
    <path d="M16.5 19.1641V16.1641C17.4453 16.1641 18.2109 16.9297 18.2109 17.875H15.2109H12.2109C12.2109 20.2434 14.1316 22.1641 16.5 22.1641V19.1641ZM15.2109 17.875H18.2109C18.2109 18.8203 17.4453 19.5859 16.5 19.5859V16.5859V13.5859C14.1316 13.5859 12.2109 15.5066 12.2109 17.875H15.2109ZM16.5 16.5859V19.5859C15.5547 19.5859 14.7891 18.8203 14.7891 17.875H17.7891H20.7891C20.7891 15.5066 18.8684 13.5859 16.5 13.5859V16.5859ZM17.7891 17.875H14.7891C14.7891 16.9297 15.5547 16.1641 16.5 16.1641V19.1641V22.1641C18.8684 22.1641 20.7891 20.2434 20.7891 17.875H17.7891ZM16.5 17.1016V14.1016C14.4169 14.1016 12.7266 15.7919 12.7266 17.875H15.7266H18.7266C18.7266 19.1056 17.7306 20.1016 16.5 20.1016V17.1016ZM15.7266 17.875H12.7266C12.7266 19.9581 14.4169 21.6484 16.5 21.6484V18.6484V15.6484C17.7306 15.6484 18.7266 16.6444 18.7266 17.875H15.7266ZM16.5 18.6484V21.6484C18.5831 21.6484 20.2734 19.9581 20.2734 17.875H17.2734H14.2734C14.2734 16.6444 15.2694 15.6484 16.5 15.6484V18.6484ZM17.2734 17.875H20.2734C20.2734 15.7919 18.5831 14.1016 16.5 14.1016V17.1016V20.1016C15.2694 20.1016 14.2734 19.1056 14.2734 17.875H17.2734Z"
          fill="#202020" mask="url(#path-1-inside-1_599_3864)"/>
    <mask id="path-3-inside-2_599_3864" fill="white">
        <path d="M17.6034 21.3779C17.5313 21.3779 17.4591 21.3676 17.3869 21.3504C17.1738 21.292 16.995 21.1579 16.8816 20.9688L16.8403 20.9001C16.6375 20.5495 16.3591 20.5495 16.1563 20.9001L16.1184 20.9654C16.005 21.1579 15.8263 21.2954 15.6131 21.3504C15.3966 21.4088 15.1731 21.3779 14.9841 21.2645L14.3928 20.9242C14.1831 20.8038 14.0319 20.6079 13.9666 20.3707C13.9047 20.1335 13.9356 19.8895 14.0559 19.6798C14.1556 19.5045 14.1831 19.3463 14.1247 19.2467C14.0663 19.147 13.9184 19.0885 13.7156 19.0885C13.2138 19.0885 12.8047 18.6795 12.8047 18.1776V17.5726C12.8047 17.0707 13.2138 16.6617 13.7156 16.6617C13.9184 16.6617 14.0663 16.6032 14.1247 16.5035C14.1831 16.4038 14.1591 16.2457 14.0559 16.0704C13.9356 15.8607 13.9047 15.6132 13.9666 15.3795C14.0284 15.1423 14.1797 14.9463 14.3928 14.826L14.9875 14.4857C15.3759 14.2554 15.8881 14.3895 16.1219 14.7848L16.1631 14.8535C16.3659 15.2042 16.6444 15.2042 16.8472 14.8535L16.885 14.7882C17.1188 14.3895 17.6309 14.2554 18.0228 14.4892L18.6141 14.8295C18.8238 14.9498 18.975 15.1457 19.0403 15.3829C19.1022 15.6201 19.0713 15.8642 18.9509 16.0738C18.8513 16.2492 18.8238 16.4073 18.8822 16.507C18.9406 16.6067 19.0884 16.6651 19.2913 16.6651C19.7931 16.6651 20.2022 17.0742 20.2022 17.576V18.181C20.2022 18.6829 19.7931 19.092 19.2913 19.092C19.0884 19.092 18.9406 19.1504 18.8822 19.2501C18.8238 19.3498 18.8478 19.5079 18.9509 19.6832C19.0713 19.8929 19.1056 20.1404 19.0403 20.3742C18.9784 20.6113 18.8272 20.8073 18.6141 20.9276L18.0194 21.2679C17.8888 21.3401 17.7478 21.3779 17.6034 21.3779ZM16.5 20.106C16.8059 20.106 17.0913 20.2985 17.2872 20.6388L17.325 20.7042C17.3663 20.7763 17.435 20.8279 17.5175 20.8485C17.6 20.8692 17.6825 20.8588 17.7513 20.8176L18.3459 20.4738C18.4353 20.4223 18.5041 20.3363 18.5316 20.2332C18.5591 20.1301 18.5453 20.0235 18.4938 19.9342C18.2978 19.5973 18.2738 19.2501 18.425 18.9854C18.5763 18.7207 18.8891 18.5695 19.2809 18.5695C19.5009 18.5695 19.6763 18.3942 19.6763 18.1742V17.5692C19.6763 17.3526 19.5009 17.1738 19.2809 17.1738C18.8891 17.1738 18.5763 17.0226 18.425 16.7579C18.2738 16.4932 18.2978 16.146 18.4938 15.8092C18.5453 15.7198 18.5591 15.6132 18.5316 15.5101C18.5041 15.407 18.4388 15.3245 18.3494 15.2695L17.7547 14.9292C17.6069 14.8398 17.4109 14.8913 17.3216 15.0426L17.2838 15.1079C17.0878 15.4482 16.8025 15.6407 16.4966 15.6407C16.1906 15.6407 15.9053 15.4482 15.7094 15.1079L15.6716 15.0392C15.5856 14.8948 15.3931 14.8432 15.2453 14.9292L14.6506 15.2729C14.5613 15.3245 14.4925 15.4104 14.465 15.5135C14.4375 15.6167 14.4513 15.7232 14.5028 15.8126C14.6988 16.1495 14.7228 16.4967 14.5716 16.7613C14.4203 17.026 14.1075 17.1773 13.7156 17.1773C13.4956 17.1773 13.3203 17.3526 13.3203 17.5726V18.1776C13.3203 18.3942 13.4956 18.5729 13.7156 18.5729C14.1075 18.5729 14.4203 18.7242 14.5716 18.9888C14.7228 19.2535 14.6988 19.6007 14.5028 19.9376C14.4513 20.027 14.4375 20.1335 14.465 20.2367C14.4925 20.3398 14.5578 20.4223 14.6472 20.4773L15.2419 20.8176C15.3141 20.8623 15.4 20.8726 15.4791 20.852C15.5616 20.8313 15.6303 20.7763 15.675 20.7042L15.7128 20.6388C15.9088 20.302 16.1941 20.106 16.5 20.106Z"/>
    </mask>
    <path d="M17.6034 21.3779C17.5313 21.3779 17.4591 21.3676 17.3869 21.3504C17.1738 21.292 16.995 21.1579 16.8816 20.9688L16.8403 20.9001C16.6375 20.5495 16.3591 20.5495 16.1563 20.9001L16.1184 20.9654C16.005 21.1579 15.8263 21.2954 15.6131 21.3504C15.3966 21.4088 15.1731 21.3779 14.9841 21.2645L14.3928 20.9242C14.1831 20.8038 14.0319 20.6079 13.9666 20.3707C13.9047 20.1335 13.9356 19.8895 14.0559 19.6798C14.1556 19.5045 14.1831 19.3463 14.1247 19.2467C14.0663 19.147 13.9184 19.0885 13.7156 19.0885C13.2138 19.0885 12.8047 18.6795 12.8047 18.1776V17.5726C12.8047 17.0707 13.2138 16.6617 13.7156 16.6617C13.9184 16.6617 14.0663 16.6032 14.1247 16.5035C14.1831 16.4038 14.1591 16.2457 14.0559 16.0704C13.9356 15.8607 13.9047 15.6132 13.9666 15.3795C14.0284 15.1423 14.1797 14.9463 14.3928 14.826L14.9875 14.4857C15.3759 14.2554 15.8881 14.3895 16.1219 14.7848L16.1631 14.8535C16.3659 15.2042 16.6444 15.2042 16.8472 14.8535L16.885 14.7882C17.1188 14.3895 17.6309 14.2554 18.0228 14.4892L18.6141 14.8295C18.8238 14.9498 18.975 15.1457 19.0403 15.3829C19.1022 15.6201 19.0713 15.8642 18.9509 16.0738C18.8513 16.2492 18.8238 16.4073 18.8822 16.507C18.9406 16.6067 19.0884 16.6651 19.2913 16.6651C19.7931 16.6651 20.2022 17.0742 20.2022 17.576V18.181C20.2022 18.6829 19.7931 19.092 19.2913 19.092C19.0884 19.092 18.9406 19.1504 18.8822 19.2501C18.8238 19.3498 18.8478 19.5079 18.9509 19.6832C19.0713 19.8929 19.1056 20.1404 19.0403 20.3742C18.9784 20.6113 18.8272 20.8073 18.6141 20.9276L18.0194 21.2679C17.8888 21.3401 17.7478 21.3779 17.6034 21.3779ZM16.5 20.106C16.8059 20.106 17.0913 20.2985 17.2872 20.6388L17.325 20.7042C17.3663 20.7763 17.435 20.8279 17.5175 20.8485C17.6 20.8692 17.6825 20.8588 17.7513 20.8176L18.3459 20.4738C18.4353 20.4223 18.5041 20.3363 18.5316 20.2332C18.5591 20.1301 18.5453 20.0235 18.4938 19.9342C18.2978 19.5973 18.2738 19.2501 18.425 18.9854C18.5763 18.7207 18.8891 18.5695 19.2809 18.5695C19.5009 18.5695 19.6763 18.3942 19.6763 18.1742V17.5692C19.6763 17.3526 19.5009 17.1738 19.2809 17.1738C18.8891 17.1738 18.5763 17.0226 18.425 16.7579C18.2738 16.4932 18.2978 16.146 18.4938 15.8092C18.5453 15.7198 18.5591 15.6132 18.5316 15.5101C18.5041 15.407 18.4388 15.3245 18.3494 15.2695L17.7547 14.9292C17.6069 14.8398 17.4109 14.8913 17.3216 15.0426L17.2838 15.1079C17.0878 15.4482 16.8025 15.6407 16.4966 15.6407C16.1906 15.6407 15.9053 15.4482 15.7094 15.1079L15.6716 15.0392C15.5856 14.8948 15.3931 14.8432 15.2453 14.9292L14.6506 15.2729C14.5613 15.3245 14.4925 15.4104 14.465 15.5135C14.4375 15.6167 14.4513 15.7232 14.5028 15.8126C14.6988 16.1495 14.7228 16.4967 14.5716 16.7613C14.4203 17.026 14.1075 17.1773 13.7156 17.1773C13.4956 17.1773 13.3203 17.3526 13.3203 17.5726V18.1776C13.3203 18.3942 13.4956 18.5729 13.7156 18.5729C14.1075 18.5729 14.4203 18.7242 14.5716 18.9888C14.7228 19.2535 14.6988 19.6007 14.5028 19.9376C14.4513 20.027 14.4375 20.1335 14.465 20.2367C14.4925 20.3398 14.5578 20.4223 14.6472 20.4773L15.2419 20.8176C15.3141 20.8623 15.4 20.8726 15.4791 20.852C15.5616 20.8313 15.6303 20.7763 15.675 20.7042L15.7128 20.6388C15.9088 20.302 16.1941 20.106 16.5 20.106Z"
          fill="#202020"/>
    <path d="M17.3869 21.3504L16.5936 24.2436L16.6426 24.2571L16.692 24.2688L17.3869 21.3504ZM16.8816 20.9688L14.3091 22.5123L14.3091 22.5123L16.8816 20.9688ZM16.8403 20.9001L14.2435 22.4022L14.2555 22.423L14.2678 22.4436L16.8403 20.9001ZM16.1563 20.9001L18.7525 22.4032L18.7531 22.4022L16.1563 20.9001ZM16.1184 20.9654L18.7031 22.4885L18.7089 22.4785L18.7147 22.4685L16.1184 20.9654ZM15.6131 21.3504L14.8635 18.4456L14.8475 18.4497L14.8316 18.454L15.6131 21.3504ZM14.9841 21.2645L16.5275 18.692L16.5042 18.678L16.4806 18.6644L14.9841 21.2645ZM14.3928 20.9242L15.8894 18.3241L15.8858 18.3221L14.3928 20.9242ZM13.9666 20.3707L11.0637 21.128L11.0688 21.1476L11.0742 21.1672L13.9666 20.3707ZM14.0559 19.6798L16.6581 21.1728L16.6638 21.1627L14.0559 19.6798ZM14.0559 16.0704L11.4538 17.5634L11.4619 17.5775L11.4701 17.5915L14.0559 16.0704ZM13.9666 15.3795L16.8667 16.1472L16.8694 16.1367L13.9666 15.3795ZM14.3928 14.826L15.8676 17.4385L15.8752 17.4342L15.8828 17.4298L14.3928 14.826ZM14.9875 14.4857L16.4775 17.0895L16.4976 17.078L16.5175 17.0662L14.9875 14.4857ZM16.1219 14.7848L13.5395 16.3117L13.5444 16.32L13.5494 16.3283L16.1219 14.7848ZM16.1631 14.8535L18.76 13.3514L18.748 13.3306L18.7356 13.31L16.1631 14.8535ZM16.8472 14.8535L14.2509 13.3504L14.2503 13.3514L16.8472 14.8535ZM16.885 14.7882L14.2969 13.2711L14.2928 13.2781L14.2887 13.2851L16.885 14.7882ZM18.0228 14.4892L16.486 17.0656L16.506 17.0776L16.5263 17.0892L18.0228 14.4892ZM18.6141 14.8295L17.1175 17.4295L17.1211 17.4316L18.6141 14.8295ZM19.0403 15.3829L21.9432 14.6256L21.938 14.606L21.9327 14.5865L19.0403 15.3829ZM18.9509 16.0738L16.3488 14.5808L16.3431 14.5909L18.9509 16.0738ZM18.9509 19.6832L21.553 18.1902L21.545 18.1761L21.5367 18.1622L18.9509 19.6832ZM19.0403 20.3742L16.151 19.5668L16.144 19.5918L16.1375 19.6169L19.0403 20.3742ZM18.6141 20.9276L17.1393 18.3151L17.1316 18.3194L17.124 18.3238L18.6141 20.9276ZM18.0194 21.2679L19.4704 23.8936L19.49 23.8828L19.5094 23.8717L18.0194 21.2679ZM17.2872 20.6388L14.6873 22.1357L14.6909 22.142L17.2872 20.6388ZM17.325 20.7042L19.9297 19.2157L19.9255 19.2084L19.9213 19.201L17.325 20.7042ZM17.7513 20.8176L16.2499 18.2203L16.2287 18.2325L16.2078 18.2451L17.7513 20.8176ZM18.3459 20.4738L16.8468 17.8753L16.8446 17.8765L18.3459 20.4738ZM18.4938 19.9342L21.0923 18.435L21.087 18.4258L18.4938 19.9342ZM18.4938 15.8092L21.087 17.3175L21.0923 17.3083L18.4938 15.8092ZM18.3494 15.2695L19.9217 12.7145L19.8809 12.6894L19.8394 12.6657L18.3494 15.2695ZM17.7547 14.9292L16.2024 17.4964L16.2333 17.515L16.2647 17.533L17.7547 14.9292ZM17.3216 15.0426L14.7388 13.5164L14.732 13.5279L14.7253 13.5395L17.3216 15.0426ZM17.2838 15.1079L14.6875 13.6048L14.6839 13.611L17.2838 15.1079ZM15.7094 15.1079L13.0807 16.5537L13.0949 16.5794L13.1095 16.6048L15.7094 15.1079ZM15.6716 15.0392L18.3002 13.5934L18.2756 13.5486L18.2494 13.5047L15.6716 15.0392ZM15.2453 14.9292L16.7466 17.5265L16.7532 17.5227L15.2453 14.9292ZM14.6506 15.2729L16.1498 17.8715L16.152 17.8702L14.6506 15.2729ZM14.5028 15.8126L11.9042 17.3118L11.9096 17.3209L14.5028 15.8126ZM14.5028 19.9376L11.9095 18.4293L11.9043 18.4384L14.5028 19.9376ZM14.6472 20.4773L13.0749 23.0323L13.1156 23.0573L13.1572 23.0811L14.6472 20.4773ZM15.2419 20.8176L16.8209 18.2668L16.7769 18.2395L16.7319 18.2138L15.2419 20.8176ZM15.4791 20.852L14.7515 17.9415L14.7366 17.9453L14.7218 17.9491L15.4791 20.852ZM15.675 20.7042L18.2258 22.2832L18.2491 22.2456L18.2713 22.2073L15.675 20.7042ZM15.7128 20.6388L13.1196 19.1305L13.1165 19.1357L15.7128 20.6388ZM17.6034 21.3779V18.3779C17.8159 18.3779 17.9815 18.4081 18.0817 18.432L17.3869 21.3504L16.692 24.2688C16.9366 24.3271 17.2466 24.3779 17.6034 24.3779V21.3779ZM17.3869 21.3504L18.1802 18.4572C18.6988 18.5994 19.1634 18.941 19.454 19.4254L16.8816 20.9688L14.3091 22.5123C14.8266 23.3749 15.6487 23.9845 16.5936 24.2436L17.3869 21.3504ZM16.8816 20.9688L19.454 19.4254L19.4128 19.3566L16.8403 20.9001L14.2678 22.4436L14.3091 22.5123L16.8816 20.9688ZM16.8403 20.9001L19.4372 19.398C19.1209 18.8512 18.2051 17.6371 16.4983 17.6371C14.7915 17.6371 13.8757 18.8512 13.5594 19.398L16.1563 20.9001L18.7531 22.4022C18.6396 22.5984 17.9644 23.6371 16.4983 23.6371C15.0321 23.6371 14.3569 22.5984 14.2435 22.4022L16.8403 20.9001ZM16.1563 20.9001L13.56 19.397L13.5222 19.4623L16.1184 20.9654L18.7147 22.4685L18.7525 22.4032L16.1563 20.9001ZM16.1184 20.9654L13.5338 19.4423C13.8093 18.9749 14.2773 18.5968 14.8635 18.4456L15.6131 21.3504L16.3628 24.2552C17.3752 23.994 18.2007 23.341 18.7031 22.4885L16.1184 20.9654ZM15.6131 21.3504L14.8316 18.454C15.3927 18.3026 16.0097 18.3813 16.5275 18.692L14.9841 21.2645L13.4406 23.837C14.3366 24.3746 15.4005 24.5151 16.3947 24.2468L15.6131 21.3504ZM14.9841 21.2645L16.4806 18.6644L15.8894 18.3241L14.3928 20.9242L12.8963 23.5242L13.4875 23.8645L14.9841 21.2645ZM14.3928 20.9242L15.8858 18.3221C16.3726 18.6014 16.7173 19.0599 16.8589 19.5743L13.9666 20.3707L11.0742 21.1672C11.3465 22.1559 11.9936 23.0063 12.8998 23.5263L14.3928 20.9242ZM13.9666 20.3707L16.8694 19.6135C17.0006 20.1162 16.9393 20.6825 16.658 21.1728L14.0559 19.6798L11.4538 18.1868C10.9319 19.0964 10.8088 20.1508 11.0637 21.128L13.9666 20.3707ZM14.0559 19.6798L16.6638 21.1627C16.8342 20.863 17.0256 20.439 17.1106 19.9169C17.1938 19.4061 17.2061 18.571 16.7128 17.7295L14.1247 19.2467L11.5366 20.7638C11.1018 20.022 11.1295 19.3159 11.1886 18.9528C11.2495 18.5785 11.3773 18.3213 11.4481 18.1969L14.0559 19.6798ZM14.1247 19.2467L16.7128 17.7295C15.8142 16.1967 14.2073 16.0885 13.7156 16.0885V19.0885V22.0885C13.5505 22.0885 13.2503 22.0675 12.887 21.9262C12.5294 21.7872 11.9451 21.4607 11.5366 20.7638L14.1247 19.2467ZM13.7156 19.0885V16.0885C14.8706 16.0885 15.8047 17.0226 15.8047 18.1776H12.8047H9.80469C9.80469 20.3363 11.5569 22.0885 13.7156 22.0885V19.0885ZM12.8047 18.1776H15.8047V17.5726H12.8047H9.80469V18.1776H12.8047ZM12.8047 17.5726H15.8047C15.8047 18.7276 14.8706 19.6617 13.7156 19.6617V16.6617V13.6617C11.5569 13.6617 9.80469 15.4139 9.80469 17.5726H12.8047ZM13.7156 16.6617V19.6617C14.2073 19.6617 15.8142 19.5535 16.7128 18.0207L14.1247 16.5035L11.5366 14.9864C11.9451 14.2895 12.5294 13.963 12.887 13.824C13.2503 13.6827 13.5505 13.6617 13.7156 13.6617V16.6617ZM14.1247 16.5035L16.7128 18.0207C17.6354 16.4468 16.8853 14.9635 16.6417 14.5494L14.0559 16.0704L11.4701 17.5915C11.385 17.4467 11.2487 17.1724 11.1872 16.7806C11.1269 16.3963 11.115 15.7056 11.5366 14.9864L14.1247 16.5035ZM14.0559 16.0704L16.658 14.5774C16.9384 15.066 17.0029 15.6324 16.8667 16.1472L13.9666 15.3795L11.0664 14.6118C10.8064 15.594 10.9329 16.6555 11.4538 17.5634L14.0559 16.0704ZM13.9666 15.3795L16.8694 16.1367C16.7256 16.6882 16.36 17.1605 15.8676 17.4385L14.3928 14.826L12.918 12.2136C11.9994 12.7322 11.3313 13.5964 11.0637 14.6222L13.9666 15.3795ZM14.3928 14.826L15.8828 17.4298L16.4775 17.0895L14.9875 14.4857L13.4975 11.8819L12.9028 12.2222L14.3928 14.826ZM14.9875 14.4857L16.5175 17.0662C15.4484 17.7001 14.1313 17.3124 13.5395 16.3117L16.1219 14.7848L18.7042 13.2578C17.645 11.4665 15.3035 10.8107 13.4575 11.9052L14.9875 14.4857ZM16.1219 14.7848L13.5494 16.3283L13.5907 16.397L16.1631 14.8535L18.7356 13.31L18.6943 13.2413L16.1219 14.7848ZM16.1631 14.8535L13.5663 16.3556C13.8826 16.9025 14.7984 18.1165 16.5052 18.1165C18.2119 18.1165 19.1277 16.9025 19.444 16.3556L16.8472 14.8535L14.2503 13.3514C14.3638 13.1552 15.039 12.1165 16.5052 12.1165C17.9713 12.1165 18.6465 13.1552 18.76 13.3514L16.1631 14.8535ZM16.8472 14.8535L19.4435 16.3566L19.4813 16.2913L16.885 14.7882L14.2887 13.2851L14.2509 13.3504L16.8472 14.8535ZM16.885 14.7882L19.4731 16.3054C18.8798 17.3175 17.5507 17.7007 16.486 17.0656L18.0228 14.4892L19.5596 11.9127C17.7112 10.8101 15.3577 11.4615 14.2969 13.2711L16.885 14.7882ZM18.0228 14.4892L16.5263 17.0892L17.1175 17.4295L18.6141 14.8295L20.1106 12.2294L19.5194 11.8891L18.0228 14.4892ZM18.6141 14.8295L17.1211 17.4316C16.6343 17.1523 16.2896 16.6937 16.148 16.1794L19.0403 15.3829L21.9327 14.5865C21.6604 13.5978 21.0132 12.7473 20.1071 12.2274L18.6141 14.8295ZM19.0403 15.3829L16.1375 16.1402C16.0063 15.6374 16.0675 15.0711 16.3488 14.5808L18.9509 16.0738L21.553 17.5669C22.075 16.6572 22.1981 15.6028 21.9432 14.6256L19.0403 15.3829ZM18.9509 16.0738L16.3431 14.5909C16.1726 14.8906 15.9812 15.3146 15.8962 15.8367C15.8131 16.3476 15.8008 17.1827 16.2941 18.0241L18.8822 16.507L21.4703 14.9898C21.9051 15.7316 21.8774 16.4378 21.8183 16.8008C21.7574 17.1751 21.6295 17.4324 21.5588 17.5568L18.9509 16.0738ZM18.8822 16.507L16.2941 18.0241C17.1927 19.557 18.7995 19.6651 19.2913 19.6651V16.6651V13.6651C19.4564 13.6651 19.7566 13.6861 20.1199 13.8274C20.4775 13.9665 21.0618 14.293 21.4703 14.9898L18.8822 16.507ZM19.2913 16.6651V19.6651C18.1363 19.6651 17.2022 18.731 17.2022 17.576H20.2022H23.2022C23.2022 15.4173 21.45 13.6651 19.2913 13.6651V16.6651ZM20.2022 17.576H17.2022V18.181H20.2022H23.2022V17.576H20.2022ZM20.2022 18.181H17.2022C17.2022 17.0261 18.1363 16.092 19.2913 16.092V19.092V22.092C21.45 22.092 23.2022 20.3398 23.2022 18.181H20.2022ZM19.2913 19.092V16.092C18.7995 16.092 17.1927 16.2001 16.2941 17.7329L18.8822 19.2501L21.4703 20.7673C21.0618 21.4641 20.4775 21.7906 20.1199 21.9297C19.7566 22.071 19.4564 22.092 19.2913 22.092V19.092ZM18.8822 19.2501L16.2941 17.7329C15.3715 19.3069 16.1215 20.7901 16.3651 21.2043L18.9509 19.6832L21.5367 18.1622C21.6219 18.307 21.7582 18.5813 21.8197 18.9731C21.88 19.3574 21.8919 20.048 21.4703 20.7673L18.8822 19.2501ZM18.9509 19.6832L16.3488 21.1762C16.084 20.7147 15.992 20.1359 16.151 19.5668L19.0403 20.3742L21.9296 21.1815C22.2193 20.1449 22.0585 19.0711 21.553 18.1902L18.9509 19.6832ZM19.0403 20.3742L16.1375 19.6169C16.2813 19.0655 16.6469 18.5931 17.1393 18.3151L18.6141 20.9276L20.0888 23.5401C21.0075 23.0215 21.6756 22.1572 21.9432 21.1314L19.0403 20.3742ZM18.6141 20.9276L17.124 18.3238L16.5293 18.6641L18.0194 21.2679L19.5094 23.8717L20.1041 23.5314L18.6141 20.9276ZM18.0194 21.2679L16.5683 18.6422C16.8562 18.4831 17.2117 18.3779 17.6034 18.3779V21.3779V24.3779C18.284 24.3779 18.9213 24.1971 19.4704 23.8936L18.0194 21.2679ZM16.5 20.106V23.106C15.4275 23.106 14.8547 22.4264 14.6873 22.1357L17.2872 20.6388L19.8871 19.142C19.3278 18.1707 18.1844 17.106 16.5 17.106V20.106ZM17.2872 20.6388L14.6909 22.142L14.7287 22.2073L17.325 20.7042L19.9213 19.201L19.8835 19.1357L17.2872 20.6388ZM17.325 20.7042L14.7203 22.1926C15.1776 22.9929 15.9344 23.5451 16.7899 23.759L17.5175 20.8485L18.2451 17.9381C18.9356 18.1107 19.5549 18.5598 19.9297 19.2157L17.325 20.7042ZM17.5175 20.8485L16.7899 23.759C17.567 23.9532 18.4783 23.8799 19.2947 23.3901L17.7513 20.8176L16.2078 18.2451C16.8867 17.8378 17.633 17.7851 18.2451 17.9381L17.5175 20.8485ZM17.7513 20.8176L19.2526 23.4149L19.8473 23.0712L18.3459 20.4738L16.8446 17.8765L16.2499 18.2203L17.7513 20.8176ZM18.3459 20.4738L19.8451 23.0724C20.5958 22.6393 21.1888 21.9116 21.4303 21.0062L18.5316 20.2332L15.6329 19.4602C15.8193 18.7611 16.2748 18.2053 16.8468 17.8753L18.3459 20.4738ZM18.5316 20.2332L21.4303 21.0062C21.6569 20.1564 21.5512 19.2304 21.0923 18.435L18.4938 19.9342L15.8952 21.4333C15.5394 20.8166 15.4612 20.1038 15.6329 19.4602L18.5316 20.2332ZM18.4938 19.9342L21.087 18.4258C21.2631 18.7286 21.5554 19.554 21.0297 20.4738L18.425 18.9854L15.8203 17.497C14.9921 18.9462 15.3325 20.466 15.9005 21.4425L18.4938 19.9342ZM18.425 18.9854L21.0297 20.4738C20.488 21.4218 19.6018 21.5695 19.2809 21.5695V18.5695V15.5695C18.1763 15.5695 16.6645 16.0196 15.8203 17.497L18.425 18.9854ZM19.2809 18.5695V21.5695C21.1578 21.5695 22.6763 20.051 22.6763 18.1742H19.6763H16.6763C16.6763 16.7373 17.8441 15.5695 19.2809 15.5695V18.5695ZM19.6763 18.1742H22.6763V17.5692H19.6763H16.6763V18.1742H19.6763ZM19.6763 17.5692H22.6763C22.6763 15.7128 21.1748 14.1738 19.2809 14.1738V17.1738V20.1738C17.8271 20.1738 16.6763 18.9924 16.6763 17.5692H19.6763ZM19.2809 17.1738V14.1738C19.6018 14.1738 20.488 14.3215 21.0297 15.2695L18.425 16.7579L15.8203 18.2463C16.6645 19.7237 18.1763 20.1738 19.2809 20.1738V17.1738ZM18.425 16.7579L21.0297 15.2695C21.5554 16.1894 21.2631 17.0147 21.087 17.3175L18.4938 15.8092L15.9005 14.3008C15.3325 15.2773 14.9921 16.7971 15.8203 18.2463L18.425 16.7579ZM18.4938 15.8092L21.0923 17.3083C21.5512 16.5129 21.6569 15.5869 21.4303 14.7371L18.5316 15.5101L15.6329 16.2831C15.4612 15.6395 15.5394 14.9267 15.8952 14.31L18.4938 15.8092ZM18.5316 15.5101L21.4303 14.7371C21.1899 13.8359 20.6136 13.1403 19.9217 12.7145L18.3494 15.2695L16.7771 17.8244C16.2639 17.5087 15.8182 16.9781 15.6329 16.2831L18.5316 15.5101ZM18.3494 15.2695L19.8394 12.6657L19.2447 12.3254L17.7547 14.9292L16.2647 17.533L16.8593 17.8733L18.3494 15.2695ZM17.7547 14.9292L19.3069 12.362C17.6833 11.3802 15.6483 11.9772 14.7388 13.5164L17.3216 15.0426L19.9043 16.5688C19.1735 17.8055 17.5305 18.2994 16.2024 17.4964L17.7547 14.9292ZM17.3216 15.0426L14.7253 13.5395L14.6875 13.6048L17.2838 15.1079L19.88 16.611L19.9178 16.5457L17.3216 15.0426ZM17.2838 15.1079L14.6839 13.611C14.8512 13.3203 15.4241 12.6407 16.4966 12.6407V15.6407V18.6407C18.1809 18.6407 19.3244 17.5761 19.8836 16.6048L17.2838 15.1079ZM16.4966 15.6407V12.6407C17.569 12.6407 18.1419 13.3203 18.3092 13.611L15.7094 15.1079L13.1095 16.6048C13.6687 17.5761 14.8122 18.6407 16.4966 18.6407V15.6407ZM15.7094 15.1079L18.338 13.6622L18.3002 13.5934L15.6716 15.0392L13.0429 16.4849L13.0807 16.5537L15.7094 15.1079ZM15.6716 15.0392L18.2494 13.5047C17.3273 11.9556 15.3159 11.418 13.7375 12.3356L15.2453 14.9292L16.7532 17.5227C15.4704 18.2685 13.8439 17.834 13.0937 16.5736L15.6716 15.0392ZM15.2453 14.9292L13.744 12.3319L13.1493 12.6756L14.6506 15.2729L16.152 17.8702L16.7466 17.5265L15.2453 14.9292ZM14.6506 15.2729L13.1515 12.6744C12.4007 13.1075 11.8077 13.8351 11.5663 14.7405L14.465 15.5135L17.3637 16.2865C17.1773 16.9857 16.7218 17.5415 16.1498 17.8715L14.6506 15.2729ZM14.465 15.5135L11.5663 14.7405C11.3397 15.5903 11.4453 16.5163 11.9043 17.3118L14.5028 15.8126L17.1014 14.3134C17.4572 14.9301 17.5353 15.643 17.3637 16.2865L14.465 15.5135ZM14.5028 15.8126L11.9096 17.3209C11.7335 17.0182 11.4412 16.1928 11.9668 15.2729L14.5716 16.7613L17.1763 18.2498C18.0044 16.8005 17.664 15.2808 17.0961 14.3043L14.5028 15.8126ZM14.5716 16.7613L11.9668 15.2729C12.5086 14.3249 13.3947 14.1773 13.7156 14.1773V17.1773V20.1773C14.8203 20.1773 16.3321 19.7272 17.1763 18.2498L14.5716 16.7613ZM13.7156 17.1773V14.1773C11.8388 14.1773 10.3203 15.6957 10.3203 17.5726H13.3203H16.3203C16.3203 19.0095 15.1525 20.1773 13.7156 20.1773V17.1773ZM13.3203 17.5726H10.3203V18.1776H13.3203H16.3203V17.5726H13.3203ZM13.3203 18.1776H10.3203C10.3203 20.034 11.8218 21.5729 13.7156 21.5729V18.5729V15.5729C15.1694 15.5729 16.3203 16.7543 16.3203 18.1776H13.3203ZM13.7156 18.5729V21.5729C13.3947 21.5729 12.5086 21.4253 11.9668 20.4773L14.5716 18.9888L17.1763 17.5004C16.3321 16.023 14.8203 15.5729 13.7156 15.5729V18.5729ZM14.5716 18.9888L11.9668 20.4773C11.4412 19.5574 11.7335 18.732 11.9096 18.4293L14.5028 19.9376L17.0961 21.4459C17.664 20.4694 18.0044 18.9497 17.1763 17.5004L14.5716 18.9888ZM14.5028 19.9376L11.9043 18.4384C11.4453 19.2339 11.3397 20.1599 11.5663 21.0096L14.465 20.2367L17.3637 19.4637C17.5353 20.1072 17.4572 20.8201 17.1014 21.4368L14.5028 19.9376ZM14.465 20.2367L11.5663 21.0096C11.8066 21.9109 12.383 22.6065 13.0749 23.0323L14.6472 20.4773L16.2195 17.9223C16.7326 18.2381 17.1784 18.7687 17.3637 19.4637L14.465 20.2367ZM14.6472 20.4773L13.1572 23.0811L13.7518 23.4214L15.2419 20.8176L16.7319 18.2138L16.1372 17.8735L14.6472 20.4773ZM15.2419 20.8176L13.6628 23.3684C14.4771 23.8725 15.4149 23.9691 16.2363 23.7548L15.4791 20.852L14.7218 17.9491C15.3851 17.7761 16.151 17.8521 16.8209 18.2668L15.2419 20.8176ZM15.4791 20.852L16.2067 23.7624C17.141 23.5288 17.8238 22.9326 18.2258 22.2832L15.675 20.7042L13.1242 19.1251C13.4368 18.6201 13.9822 18.1339 14.7515 17.9415L15.4791 20.852ZM15.675 20.7042L18.2713 22.2073L18.3091 22.142L15.7128 20.6388L13.1165 19.1357L13.0787 19.201L15.675 20.7042ZM15.7128 20.6388L18.3061 22.1472C18.1496 22.4162 17.585 23.106 16.5 23.106V20.106V17.106C14.8032 17.106 13.6679 18.1878 13.1196 19.1305L15.7128 20.6388Z"
          fill="#202020" mask="url(#path-3-inside-2_599_3864)"/>
    <path d="M11 11.6877C8.09416 11.6877 5.72916 9.32266 5.72916 6.41683C5.72916 3.511 8.09416 1.146 11 1.146C13.9058 1.146 16.2708 3.511 16.2708 6.41683C16.2708 9.32266 13.9058 11.6877 11 11.6877ZM11 2.521C8.85499 2.521 7.10416 4.27183 7.10416 6.41683C7.10416 8.56183 8.85499 10.3127 11 10.3127C13.145 10.3127 14.8958 8.56183 14.8958 6.41683C14.8958 4.27183 13.145 2.521 11 2.521Z"
          fill="#202020"/>
    <path d="M3.12598 20.8542C2.75014 20.8542 2.43848 20.5425 2.43848 20.1667C2.43848 16.2525 6.27931 13.0625 11.0001 13.0625C11.926 13.0625 12.8335 13.1817 13.7135 13.4292C14.0801 13.53 14.291 13.9058 14.1901 14.2725C14.0893 14.6392 13.7135 14.85 13.3468 14.7492C12.5951 14.5384 11.8068 14.4375 11.0001 14.4375C7.04014 14.4375 3.81348 17.0042 3.81348 20.1667C3.81348 20.5425 3.50181 20.8542 3.12598 20.8542Z"
          fill="#202020"/>
</svg>
