<svg width="19" height="20" viewBox="0 0 19 20" fill="none" xmlns="http://www.w3.org/2000/svg">
<path d="M8.21429 4.5H3.07143C2.38944 4.5 1.73539 4.81607 1.25315 5.37868C0.770918 5.94129 0.5 6.70435 0.5 7.5V9.5C0.5 10.2956 0.770918 11.0587 1.25315 11.6213C1.73539 12.1839 2.38944 12.5 3.07143 12.5H4.78571V17.5C4.78571 18.0304 4.96633 18.5391 5.28782 18.9142C5.60931 19.2893 6.04534 19.5 6.5 19.5C6.95466 19.5 7.39069 19.2893 7.71218 18.9142C8.03367 18.5391 8.21429 18.0304 8.21429 17.5V12.5L16.7857 16.5V10.5C17.2404 10.5 17.6764 10.2893 17.9979 9.91421C18.3194 9.53914 18.5 9.03043 18.5 8.5C18.5 7.96957 18.3194 7.46086 17.9979 7.08579C17.6764 6.71071 17.2404 6.5 16.7857 6.5V0.5L8.21429 4.5Z" stroke="black" stroke-linecap="round" stroke-linejoin="round"/>
<path d="M8.5 4.5V9.5" stroke="black" stroke-linecap="round" stroke-linejoin="round"/>
</svg>
