<svg width="22" height="22" viewBox="0 0 22 22" fill="none" xmlns="http://www.w3.org/2000/svg">
    <path d="M10.9998 20.2402C10.7248 20.2402 10.4498 20.176 10.2206 20.0477C8.50646 19.1127 5.49978 18.1227 3.61145 17.8752L3.34563 17.8386C2.1448 17.6919 1.15479 16.5644 1.15479 15.3452V4.27186C1.15479 3.54769 1.43896 2.88772 1.96146 2.41105C2.48396 1.93439 3.16226 1.70521 3.87726 1.76938C5.88476 1.93438 8.9281 2.94272 10.6514 4.01522L10.8714 4.14357C10.9356 4.17107 11.0731 4.18023 11.1281 4.14357L11.2748 4.05187C11.8889 3.66687 12.6589 3.29102 13.5023 2.95186C13.7131 2.86936 13.9514 2.89687 14.1439 3.02521C14.3364 3.15354 14.4465 3.36437 14.4465 3.59353V6.05019L15.2073 5.54604C15.4365 5.39021 15.7389 5.39021 15.9681 5.54604L16.7289 6.05019V2.54858C16.7289 2.21858 16.9673 1.93436 17.2881 1.8702C17.5539 1.82436 17.8198 1.78771 18.0581 1.76938C18.0765 1.76938 18.1498 1.76938 18.1681 1.76938C18.8373 1.71438 19.5248 1.94356 20.0381 2.42023C20.5606 2.8969 20.8448 3.55687 20.8448 4.28103V15.3452C20.8448 16.5735 19.8548 17.6919 18.6448 17.8386L18.3423 17.8752C16.454 18.1227 13.4289 19.1219 11.7514 20.0477C11.5498 20.176 11.2748 20.2402 10.9998 20.2402ZM3.64809 3.12603C3.35476 3.12603 3.08896 3.22687 2.87812 3.41937C2.64896 3.6302 2.52061 3.93269 2.52061 4.27186V15.3452C2.52061 15.886 2.98813 16.4085 3.51063 16.4819L3.78561 16.5186C5.84811 16.7936 9.01062 17.8294 10.844 18.8377C10.9265 18.8744 11.0456 18.8836 11.0914 18.8652C12.9339 17.8477 16.1056 16.8027 18.1773 16.5277L18.4889 16.491C19.0114 16.4269 19.4789 15.8952 19.4789 15.3544V4.29021C19.4789 3.95104 19.3506 3.65772 19.1214 3.43772C18.8923 3.22688 18.5715 3.12604 18.2415 3.14438C18.214 3.14438 18.1315 3.14438 18.1131 3.14438V7.33355C18.1131 7.59022 17.9756 7.81936 17.7464 7.93853C17.5173 8.05769 17.2515 8.04855 17.0406 7.90188L15.5923 6.93939L14.1439 7.90188C13.9331 8.03938 13.6673 8.05769 13.4381 7.93853C13.2181 7.81936 13.0715 7.59022 13.0715 7.33355V4.64772C12.6773 4.84022 12.3198 5.03272 12.0081 5.21605L11.8614 5.3077C11.3573 5.61936 10.6423 5.61937 10.1565 5.31687L9.93647 5.17941C8.3873 4.20774 5.56393 3.27269 3.76726 3.12603C3.72143 3.12603 3.68476 3.12603 3.64809 3.12603Z"
          fill="#202020"/>
    <path d="M11 19.4702C10.6242 19.4702 10.3125 19.1585 10.3125 18.7827V5.03271C10.3125 4.65688 10.6242 4.34521 11 4.34521C11.3758 4.34521 11.6875 4.65688 11.6875 5.03271V18.7827C11.6875 19.1677 11.3758 19.4702 11 19.4702Z"
          fill="#202020"/>
    <path d="M17.4167 8.02095C17.2792 8.02095 17.1508 7.98427 17.0317 7.90177L15.5833 6.93929L14.135 7.90177C13.9242 8.03927 13.6584 8.05759 13.4292 7.93842C13.2092 7.81925 13.0625 7.59011 13.0625 7.33345V3.59343C13.0625 3.30926 13.2366 3.06175 13.4933 2.95175C14.7583 2.44758 16.1425 2.05342 17.3067 1.87009C17.5083 1.83342 17.71 1.89763 17.8658 2.02597C18.0217 2.1543 18.1042 2.34681 18.1042 2.54847V7.33345C18.1042 7.59011 17.9666 7.81925 17.7375 7.93842C17.6366 7.99342 17.5267 8.02095 17.4167 8.02095ZM15.5833 5.42676C15.7117 5.42676 15.8492 5.46343 15.9683 5.54593L16.7292 6.05009V3.38261C15.9958 3.54761 15.1983 3.78595 14.4375 4.07011V6.05009L15.1983 5.54593C15.3175 5.46343 15.455 5.42676 15.5833 5.42676Z"
          fill="#202020"/>
</svg>
