<svg width="22" height="22" viewBox="0 0 22 22" fill="none" xmlns="http://www.w3.org/2000/svg">
    <path d="M12.8333 4.58333C12.8333 3.575 12.0083 2.75 11 2.75C9.99168 2.75 9.16668 3.575 9.16668 4.58333C9.16668 5.59167 9.99168 6.41667 11 6.41667C12.0083 6.41667 12.8333 5.59167 12.8333 4.58333Z"
          stroke="#7E7E7E" stroke-width="1.5"/>
    <path d="M12.8333 17.4168C12.8333 16.4085 12.0083 15.5835 11 15.5835C9.99168 15.5835 9.16668 16.4085 9.16668 17.4168C9.16668 18.4252 9.99168 19.2502 11 19.2502C12.0083 19.2502 12.8333 18.4252 12.8333 17.4168Z"
          stroke="#7E7E7E" stroke-width="1.5"/>
    <path d="M12.8333 10.9998C12.8333 9.9915 12.0083 9.1665 11 9.1665C9.99168 9.1665 9.16668 9.9915 9.16668 10.9998C9.16668 12.0082 9.99168 12.8332 11 12.8332C12.0083 12.8332 12.8333 12.0082 12.8333 10.9998Z"
          stroke="#7E7E7E" stroke-width="1.5"/>
</svg>
