<svg width="22" height="22" viewBox="0 0 22 22" fill="none" xmlns="http://www.w3.org/2000/svg">
<path d="M11.0183 18.8193C8.88249 18.8193 6.74666 18.4801 4.72083 17.8018C3.95083 17.5359 3.36416 16.9951 3.10749 16.2893C2.84166 15.5834 2.93333 14.8043 3.35499 14.1076L4.40916 12.3568C4.62916 11.9901 4.83083 11.2568 4.83083 10.8259V8.17676C4.83083 4.76676 7.60833 1.98926 11.0183 1.98926C14.4283 1.98926 17.2058 4.76676 17.2058 8.17676V10.8259C17.2058 11.2476 17.4075 11.9901 17.6275 12.3659L18.6725 14.1076C19.0667 14.7676 19.14 15.5651 18.8742 16.2893C18.6083 17.0134 18.0308 17.5634 17.3067 17.8018C15.29 18.4801 13.1542 18.8193 11.0183 18.8193ZM11.0183 3.36426C8.36916 3.36426 6.20583 5.51842 6.20583 8.17676V10.8259C6.20583 11.4951 5.93083 12.4851 5.59166 13.0626L4.53749 14.8134C4.33582 15.1526 4.28083 15.5101 4.39999 15.8126C4.50999 16.1243 4.78499 16.3626 5.16083 16.4909C8.99249 17.7743 13.0533 17.7743 16.885 16.4909C17.215 16.3809 17.4717 16.1334 17.5908 15.8034C17.71 15.4734 17.6825 15.1159 17.4992 14.8134L16.445 13.0626C16.0967 12.4668 15.8308 11.4859 15.8308 10.8168V8.17676C15.8308 5.51842 13.6767 3.36426 11.0183 3.36426Z" fill="#202020"/>
<path d="M12.7233 3.61154C12.6592 3.61154 12.595 3.60238 12.5308 3.58404C12.265 3.51071 12.0083 3.45571 11.7608 3.41904C10.9817 3.31821 10.23 3.37321 9.52416 3.58404C9.26749 3.66654 8.99249 3.58404 8.81833 3.39154C8.64416 3.19904 8.58916 2.92404 8.68999 2.67654C9.06583 1.71404 9.98249 1.08154 11.0275 1.08154C12.0725 1.08154 12.9892 1.70488 13.365 2.67654C13.4567 2.92404 13.4108 3.19904 13.2367 3.39154C13.0992 3.53821 12.9067 3.61154 12.7233 3.61154Z" fill="#202020"/>
<path d="M11.0183 20.9092C10.1108 20.9092 9.23084 20.5425 8.58917 19.9008C7.94751 19.2592 7.58084 18.3792 7.58084 17.4717H8.95584C8.95584 18.0125 9.17584 18.5442 9.56084 18.9292C9.94584 19.3142 10.4775 19.5342 11.0183 19.5342C12.155 19.5342 13.0808 18.6083 13.0808 17.4717H14.4558C14.4558 19.3692 12.9158 20.9092 11.0183 20.9092Z" fill="#202020"/>
</svg>
