<svg width="9" height="15" viewBox="0 0 9 15" fill="none" xmlns="http://www.w3.org/2000/svg">
    <path d="M2.92667 10.6532V10.568C2.93614 9.66365 3.03084 8.94395 3.21076 8.40891C3.39068 7.87388 3.64637 7.44064 3.97781 7.1092C4.30924 6.77776 4.70697 6.47236 5.17099 6.193C5.45034 6.02255 5.70129 5.82132 5.92383 5.58931C6.14637 5.35257 6.32156 5.08031 6.4494 4.77255C6.58197 4.46478 6.64826 4.12388 6.64826 3.74982C6.64826 3.28581 6.53936 2.88334 6.32156 2.54244C6.10375 2.20153 5.81256 1.93874 5.44798 1.75408C5.08339 1.56942 4.67856 1.47709 4.23349 1.47709C3.84523 1.47709 3.47118 1.55759 3.11133 1.71857C2.75148 1.87956 2.45082 2.13287 2.20934 2.47852C1.96786 2.82416 1.82818 3.27634 1.79031 3.83505H0.000532657C0.0384115 3.03013 0.246745 2.3412 0.625533 1.76829C1.00906 1.19537 1.51332 0.757398 2.13832 0.454367C2.76805 0.151337 3.46644 -0.000178099 4.23349 -0.000178099C5.06682 -0.000178099 5.79125 0.165541 6.40678 0.496981C7.02705 0.828421 7.50527 1.28297 7.84144 1.86062C8.18235 2.43827 8.35281 3.09641 8.35281 3.83505C8.35281 4.35588 8.27231 4.827 8.11133 5.2484C7.95508 5.6698 7.72781 6.04622 7.42951 6.37766C7.13595 6.7091 6.78084 7.00266 6.36417 7.25835C5.9475 7.51876 5.6137 7.79338 5.36275 8.08221C5.1118 8.3663 4.92951 8.70484 4.81587 9.09783C4.70224 9.49083 4.64068 9.98088 4.63121 10.568V10.6532H2.92667ZM3.83576 14.8578C3.48538 14.8578 3.18472 14.7323 2.93377 14.4814C2.68282 14.2304 2.55735 13.9297 2.55735 13.5794C2.55735 13.229 2.68282 12.9283 2.93377 12.6774C3.18472 12.4264 3.48538 12.301 3.83576 12.301C4.18614 12.301 4.4868 12.4264 4.73775 12.6774C4.9887 12.9283 5.11417 13.229 5.11417 13.5794C5.11417 13.8114 5.05498 14.0244 4.93661 14.2186C4.82298 14.4127 4.66909 14.569 4.47496 14.6873C4.28557 14.801 4.0725 14.8578 3.83576 14.8578Z"
          fill="#702DFF"/>
</svg>
