<svg width="635" height="1080" viewBox="0 0 635 1080" fill="none" xmlns="http://www.w3.org/2000/svg">
<path d="M473.276 765.652C473.276 765.652 476.521 798.86 489.16 812.718C501.799 826.576 532.085 830.134 532.085 830.134C532.085 830.134 501.799 833.692 489.16 847.55C476.521 861.408 473.276 894.615 473.276 894.615C473.276 894.615 470.031 861.408 457.393 847.55C444.754 833.692 414.468 830.134 414.468 830.134C414.468 830.134 444.754 826.576 457.393 812.718C470.031 798.86 473.276 765.652 473.276 765.652Z" fill="#702DFF" fill-opacity="0.25"/>
<path d="M576.191 843.03C576.191 843.03 579.436 876.238 592.075 890.096C604.714 903.954 635 907.512 635 907.512C635 907.512 604.714 911.07 592.075 924.928C579.436 938.786 576.191 971.993 576.191 971.993C576.191 971.993 572.947 938.786 560.308 924.928C547.669 911.07 517.383 907.512 517.383 907.512C517.383 907.512 547.669 903.954 560.308 890.096C572.947 876.238 576.191 843.03 576.191 843.03Z" fill="#702DFF" fill-opacity="0.1"/>
<path d="M368.891 889.779C368.891 889.779 372.136 938.761 384.774 959.201C397.413 979.642 427.699 984.89 427.699 984.89C427.699 984.89 397.413 990.137 384.774 1010.58C372.136 1031.02 368.891 1080 368.891 1080C368.891 1080 365.646 1031.02 353.007 1010.58C340.368 990.137 310.082 984.89 310.082 984.89C310.082 984.89 340.368 979.642 353.007 959.201C365.646 938.761 368.891 889.779 368.891 889.779Z" fill="#702DFF" fill-opacity="0.1"/>
<path d="M562.224 598C562.224 598 564.698 646.981 574.336 667.422C583.973 687.863 607.066 693.11 607.066 693.11C607.066 693.11 583.973 698.358 574.336 718.799C564.698 739.239 562.224 788.221 562.224 788.221C562.224 788.221 559.75 739.239 550.113 718.799C540.476 698.358 517.383 693.11 517.383 693.11C517.383 693.11 540.476 687.863 550.113 667.422C559.75 646.981 562.224 598 562.224 598Z" fill="#702DFF" fill-opacity="0.1"/>
<path d="M369.626 725.351C369.626 725.351 372.1 750.257 381.737 760.65C391.374 771.044 414.468 773.712 414.468 773.712C414.468 773.712 391.374 776.381 381.737 786.774C372.1 797.168 369.626 822.074 369.626 822.074C369.626 822.074 367.152 797.168 357.515 786.774C347.877 776.381 324.784 773.712 324.784 773.712C324.784 773.712 347.877 771.044 357.515 760.65C367.152 750.257 369.626 725.351 369.626 725.351Z" fill="#702DFF" fill-opacity="0.1"/>
<path d="M472.5 596C472.5 596 474.514 615.827 482.358 624.102C490.203 632.376 509 634.5 509 634.5C509 634.5 490.203 636.624 482.358 644.898C474.514 653.173 472.5 673 472.5 673C472.5 673 470.486 653.173 462.642 644.898C454.797 636.624 436 634.5 436 634.5C436 634.5 454.797 632.376 462.642 624.102C470.486 615.827 472.5 596 472.5 596Z" fill="#702DFF" fill-opacity="0.1"/>
<path d="M472.5 1003C472.5 1003 474.514 1022.83 482.358 1031.1C490.203 1039.38 509 1041.5 509 1041.5C509 1041.5 490.203 1043.62 482.358 1051.9C474.514 1060.17 472.5 1080 472.5 1080C472.5 1080 470.486 1060.17 462.642 1051.9C454.797 1043.62 436 1041.5 436 1041.5C436 1041.5 454.797 1039.38 462.642 1031.1C470.486 1022.83 472.5 1003 472.5 1003Z" fill="#702DFF" fill-opacity="0.1"/>
<path d="M472.5 201C472.5 201 474.514 220.827 482.358 229.102C490.203 237.376 509 239.5 509 239.5C509 239.5 490.203 241.624 482.358 249.898C474.514 258.173 472.5 278 472.5 278C472.5 278 470.486 258.173 462.642 249.898C454.797 241.624 436 239.5 436 239.5C436 239.5 454.797 237.376 462.642 229.102C470.486 220.827 472.5 201 472.5 201Z" fill="#702DFF" fill-opacity="0.1"/>
<path d="M473.194 368.652C473.194 368.652 476.439 401.86 489.078 415.718C501.717 429.576 532.003 433.134 532.003 433.134C532.003 433.134 501.717 436.692 489.078 450.55C476.439 464.408 473.194 497.615 473.194 497.615C473.194 497.615 469.949 464.408 457.31 450.55C444.671 436.692 414.385 433.134 414.385 433.134C414.385 433.134 444.671 429.576 457.31 415.718C469.949 401.86 473.194 368.652 473.194 368.652Z" fill="#702DFF" fill-opacity="0.25"/>
<path d="M576.109 446.03C576.109 446.03 579.354 479.238 591.993 493.096C604.632 506.954 634.918 510.512 634.918 510.512C634.918 510.512 604.632 514.069 591.993 527.928C579.354 541.786 576.109 574.993 576.109 574.993C576.109 574.993 572.864 541.786 560.226 527.928C547.587 514.069 517.301 510.512 517.301 510.512C517.301 510.512 547.587 506.954 560.226 493.096C572.864 479.238 576.109 446.03 576.109 446.03Z" fill="#702DFF" fill-opacity="0.1"/>
<path d="M368.809 492.779C368.809 492.779 372.053 541.761 384.692 562.201C397.331 582.642 427.617 587.89 427.617 587.89C427.617 587.89 397.331 593.137 384.692 613.578C372.053 634.019 368.809 683 368.809 683C368.809 683 365.564 634.019 352.925 613.578C340.286 593.137 310 587.89 310 587.89C310 587.89 340.286 582.642 352.925 562.201C365.564 541.761 368.809 492.779 368.809 492.779Z" fill="#702DFF" fill-opacity="0.1"/>
<path d="M562.142 201C562.142 201 564.616 249.981 574.253 270.422C583.891 290.863 606.984 296.11 606.984 296.11C606.984 296.11 583.891 301.358 574.253 321.799C564.616 342.239 562.142 391.221 562.142 391.221C562.142 391.221 559.668 342.239 550.031 321.799C540.394 301.358 517.301 296.11 517.301 296.11C517.301 296.11 540.394 290.863 550.031 270.422C559.668 249.981 562.142 201 562.142 201Z" fill="#702DFF" fill-opacity="0.1"/>
<path d="M369.544 328.351C369.544 328.351 372.018 353.257 381.655 363.65C391.292 374.044 414.385 376.712 414.385 376.712C414.385 376.712 391.292 379.381 381.655 389.774C372.018 400.168 369.544 425.074 369.544 425.074C369.544 425.074 367.07 400.168 357.432 389.774C347.795 379.381 324.702 376.712 324.702 376.712C324.702 376.712 347.795 374.044 357.432 363.65C367.07 353.257 369.544 328.351 369.544 328.351Z" fill="#702DFF" fill-opacity="0.1"/>
<path d="M473.194 -18.3478C473.194 -18.3478 476.439 14.8598 489.078 28.7179C501.717 42.576 532.003 46.1338 532.003 46.1338C532.003 46.1338 501.717 49.6916 489.078 63.5497C476.439 77.4078 473.194 110.615 473.194 110.615C473.194 110.615 469.949 77.4078 457.31 63.5497C444.671 49.6916 414.385 46.1338 414.385 46.1338C414.385 46.1338 444.671 42.576 457.31 28.7179C469.949 14.8598 473.194 -18.3478 473.194 -18.3478Z" fill="#702DFF" fill-opacity="0.25"/>
<path d="M576.109 59.0301C576.109 59.0301 579.354 92.2377 591.993 106.096C604.632 119.954 634.918 123.512 634.918 123.512C634.918 123.512 604.632 127.07 591.993 140.928C579.354 154.786 576.109 187.993 576.109 187.993C576.109 187.993 572.864 154.786 560.226 140.928C547.587 127.07 517.301 123.512 517.301 123.512C517.301 123.512 547.587 119.954 560.226 106.096C572.864 92.2377 576.109 59.0301 576.109 59.0301Z" fill="#702DFF" fill-opacity="0.1"/>
<path d="M368.809 105.779C368.809 105.779 372.053 154.761 384.692 175.201C397.331 195.642 427.617 200.89 427.617 200.89C427.617 200.89 397.331 206.137 384.692 226.578C372.053 247.019 368.809 296 368.809 296C368.809 296 365.564 247.019 352.925 226.578C340.286 206.137 310 200.89 310 200.89C310 200.89 340.286 195.642 352.925 175.201C365.564 154.761 368.809 105.779 368.809 105.779Z" fill="#702DFF" fill-opacity="0.1"/>
<path d="M369.544 -58.6488C369.544 -58.6488 372.018 -33.7431 381.655 -23.3495C391.292 -12.956 414.385 -10.2876 414.385 -10.2876C414.385 -10.2876 391.292 -7.61929 381.655 2.77428C372.018 13.1679 369.544 38.0736 369.544 38.0736C369.544 38.0736 367.07 13.1679 357.432 2.77428C347.795 -7.61929 324.702 -10.2876 324.702 -10.2876C324.702 -10.2876 347.795 -12.956 357.432 -23.3495C367.07 -33.7431 369.544 -58.6488 369.544 -58.6488Z" fill="#702DFF" fill-opacity="0.1"/>
<path opacity="0.5" d="M163.276 778.652C163.276 778.652 166.521 811.86 179.16 825.718C191.799 839.576 222.085 843.134 222.085 843.134C222.085 843.134 191.799 846.692 179.16 860.55C166.521 874.408 163.276 907.615 163.276 907.615C163.276 907.615 160.031 874.408 147.393 860.55C134.754 846.692 104.468 843.134 104.468 843.134C104.468 843.134 134.754 839.576 147.393 825.718C160.031 811.86 163.276 778.652 163.276 778.652Z" fill="#702DFF" fill-opacity="0.25"/>
<path opacity="0.5" d="M266.191 856.03C266.191 856.03 269.436 889.238 282.075 903.096C294.714 916.954 325 920.512 325 920.512C325 920.512 294.714 924.07 282.075 937.928C269.436 951.786 266.191 984.993 266.191 984.993C266.191 984.993 262.947 951.786 250.308 937.928C237.669 924.07 207.383 920.512 207.383 920.512C207.383 920.512 237.669 916.954 250.308 903.096C262.947 889.238 266.191 856.03 266.191 856.03Z" fill="#702DFF" fill-opacity="0.1"/>
<path opacity="0.5" d="M58.8908 902.779C58.8908 902.779 62.1356 951.761 74.7745 972.201C87.4134 992.642 117.699 997.89 117.699 997.89C117.699 997.89 87.4134 1003.14 74.7745 1023.58C62.1356 1044.02 58.8908 1093 58.8908 1093C58.8908 1093 55.646 1044.02 43.0071 1023.58C30.3682 1003.14 0.0821533 997.89 0.0821533 997.89C0.0821533 997.89 30.3682 992.642 43.0071 972.201C55.646 951.761 58.8908 902.779 58.8908 902.779Z" fill="#702DFF" fill-opacity="0.1"/>
<path opacity="0.5" d="M252.224 611C252.224 611 254.698 659.981 264.336 680.422C273.973 700.863 297.066 706.11 297.066 706.11C297.066 706.11 273.973 711.358 264.336 731.799C254.698 752.239 252.224 801.221 252.224 801.221C252.224 801.221 249.75 752.239 240.113 731.799C230.476 711.358 207.383 706.11 207.383 706.11C207.383 706.11 230.476 700.863 240.113 680.422C249.75 659.981 252.224 611 252.224 611Z" fill="#702DFF" fill-opacity="0.1"/>
<path opacity="0.5" d="M59.6259 738.351C59.6259 738.351 62.1001 763.257 71.7372 773.65C81.3744 784.044 104.468 786.712 104.468 786.712C104.468 786.712 81.3744 789.381 71.7372 799.774C62.1001 810.168 59.6259 835.074 59.6259 835.074C59.6259 835.074 57.1518 810.168 47.5146 799.774C37.8774 789.381 14.7843 786.712 14.7843 786.712C14.7843 786.712 37.8774 784.044 47.5146 773.65C57.1518 763.257 59.6259 738.351 59.6259 738.351Z" fill="#702DFF" fill-opacity="0.1"/>
<path opacity="0.5" d="M162.5 609C162.5 609 164.514 628.827 172.358 637.102C180.203 645.376 199 647.5 199 647.5C199 647.5 180.203 649.624 172.358 657.898C164.514 666.173 162.5 686 162.5 686C162.5 686 160.486 666.173 152.642 657.898C144.797 649.624 126 647.5 126 647.5C126 647.5 144.797 645.376 152.642 637.102C160.486 628.827 162.5 609 162.5 609Z" fill="#702DFF" fill-opacity="0.1"/>
<path opacity="0.5" d="M162.5 1016C162.5 1016 164.514 1035.83 172.358 1044.1C180.203 1052.38 199 1054.5 199 1054.5C199 1054.5 180.203 1056.62 172.358 1064.9C164.514 1073.17 162.5 1093 162.5 1093C162.5 1093 160.486 1073.17 152.642 1064.9C144.797 1056.62 126 1054.5 126 1054.5C126 1054.5 144.797 1052.38 152.642 1044.1C160.486 1035.83 162.5 1016 162.5 1016Z" fill="#702DFF" fill-opacity="0.1"/>
<path opacity="0.5" d="M162.5 214C162.5 214 164.514 233.827 172.358 242.102C180.203 250.376 199 252.5 199 252.5C199 252.5 180.203 254.624 172.358 262.898C164.514 271.173 162.5 291 162.5 291C162.5 291 160.486 271.173 152.642 262.898C144.797 254.624 126 252.5 126 252.5C126 252.5 144.797 250.376 152.642 242.102C160.486 233.827 162.5 214 162.5 214Z" fill="#702DFF" fill-opacity="0.1"/>
<path opacity="0.5" d="M163.194 381.652C163.194 381.652 166.439 414.86 179.078 428.718C191.717 442.576 222.003 446.134 222.003 446.134C222.003 446.134 191.717 449.692 179.078 463.55C166.439 477.408 163.194 510.615 163.194 510.615C163.194 510.615 159.949 477.408 147.31 463.55C134.671 449.692 104.385 446.134 104.385 446.134C104.385 446.134 134.671 442.576 147.31 428.718C159.949 414.86 163.194 381.652 163.194 381.652Z" fill="#702DFF" fill-opacity="0.25"/>
<path opacity="0.5" d="M266.109 459.03C266.109 459.03 269.354 492.238 281.993 506.096C294.632 519.954 324.918 523.512 324.918 523.512C324.918 523.512 294.632 527.07 281.993 540.928C269.354 554.786 266.109 587.993 266.109 587.993C266.109 587.993 262.864 554.786 250.226 540.928C237.587 527.07 207.301 523.512 207.301 523.512C207.301 523.512 237.587 519.954 250.226 506.096C262.864 492.238 266.109 459.03 266.109 459.03Z" fill="#702DFF" fill-opacity="0.1"/>
<path opacity="0.5" d="M58.8087 505.779C58.8087 505.779 62.0534 554.761 74.6923 575.201C87.3312 595.642 117.617 600.89 117.617 600.89C117.617 600.89 87.3312 606.137 74.6923 626.578C62.0534 647.019 58.8087 696 58.8087 696C58.8087 696 55.5639 647.019 42.925 626.578C30.2861 606.137 0 600.89 0 600.89C0 600.89 30.2861 595.642 42.925 575.201C55.5639 554.761 58.8087 505.779 58.8087 505.779Z" fill="#702DFF" fill-opacity="0.1"/>
<path opacity="0.5" d="M252.142 214C252.142 214 254.616 262.981 264.253 283.422C273.891 303.863 296.984 309.11 296.984 309.11C296.984 309.11 273.891 314.358 264.253 334.799C254.616 355.239 252.142 404.221 252.142 404.221C252.142 404.221 249.668 355.239 240.031 334.799C230.394 314.358 207.301 309.11 207.301 309.11C207.301 309.11 230.394 303.863 240.031 283.422C249.668 262.981 252.142 214 252.142 214Z" fill="#702DFF" fill-opacity="0.1"/>
<path opacity="0.5" d="M59.5438 341.351C59.5438 341.351 62.0179 366.257 71.6551 376.65C81.2922 387.044 104.385 389.712 104.385 389.712C104.385 389.712 81.2922 392.381 71.6551 402.774C62.0179 413.168 59.5438 438.074 59.5438 438.074C59.5438 438.074 57.0696 413.168 47.4324 402.774C37.7953 392.381 14.7021 389.712 14.7021 389.712C14.7021 389.712 37.7953 387.044 47.4324 376.65C57.0696 366.257 59.5438 341.351 59.5438 341.351Z" fill="#702DFF" fill-opacity="0.1"/>
<path opacity="0.5" d="M163.194 -5.34782C163.194 -5.34782 166.439 27.8598 179.078 41.7179C191.717 55.576 222.003 59.1338 222.003 59.1338C222.003 59.1338 191.717 62.6916 179.078 76.5497C166.439 90.4078 163.194 123.615 163.194 123.615C163.194 123.615 159.949 90.4078 147.31 76.5497C134.671 62.6916 104.385 59.1338 104.385 59.1338C104.385 59.1338 134.671 55.576 147.31 41.7179C159.949 27.8598 163.194 -5.34782 163.194 -5.34782Z" fill="#702DFF" fill-opacity="0.25"/>
<path opacity="0.5" d="M266.109 72.0301C266.109 72.0301 269.354 105.238 281.993 119.096C294.632 132.954 324.918 136.512 324.918 136.512C324.918 136.512 294.632 140.07 281.993 153.928C269.354 167.786 266.109 200.993 266.109 200.993C266.109 200.993 262.864 167.786 250.226 153.928C237.587 140.07 207.301 136.512 207.301 136.512C207.301 136.512 237.587 132.954 250.226 119.096C262.864 105.238 266.109 72.0301 266.109 72.0301Z" fill="#702DFF" fill-opacity="0.1"/>
<path opacity="0.5" d="M58.8087 118.779C58.8087 118.779 62.0534 167.761 74.6923 188.201C87.3312 208.642 117.617 213.89 117.617 213.89C117.617 213.89 87.3312 219.137 74.6923 239.578C62.0534 260.019 58.8087 309 58.8087 309C58.8087 309 55.5639 260.019 42.925 239.578C30.2861 219.137 0 213.89 0 213.89C0 213.89 30.2861 208.642 42.925 188.201C55.5639 167.761 58.8087 118.779 58.8087 118.779Z" fill="#702DFF" fill-opacity="0.1"/>
<path opacity="0.5" d="M59.5438 -45.6488C59.5438 -45.6488 62.0179 -20.7431 71.6551 -10.3495C81.2922 0.0440333 104.385 2.71238 104.385 2.71238C104.385 2.71238 81.2922 5.38072 71.6551 15.7743C62.0179 26.1679 59.5438 51.0736 59.5438 51.0736C59.5438 51.0736 57.0696 26.1679 47.4324 15.7743C37.7953 5.38072 14.7021 2.71238 14.7021 2.71238C14.7021 2.71238 37.7953 0.0440333 47.4324 -10.3495C57.0696 -20.7431 59.5438 -45.6488 59.5438 -45.6488Z" fill="#702DFF" fill-opacity="0.1"/>
</svg>
