<svg width="22" height="22" viewBox="0 0 22 22" fill="none" xmlns="http://www.w3.org/2000/svg">
<path d="M20.1667 20.854H1.83334C1.45751 20.854 1.14584 20.5423 1.14584 20.1665C1.14584 19.7907 1.45751 19.479 1.83334 19.479H20.1667C20.5425 19.479 20.8542 19.7907 20.8542 20.1665C20.8542 20.5423 20.5425 20.854 20.1667 20.854Z" fill="#202020"/>
<path d="M13.0625 20.8543H8.9375C8.56167 20.8543 8.25 20.5427 8.25 20.1668V3.66683C8.25 2.09016 9.12083 1.146 10.5875 1.146H11.4125C12.8792 1.146 13.75 2.09016 13.75 3.66683V20.1668C13.75 20.5427 13.4383 20.8543 13.0625 20.8543ZM9.625 19.4793H12.375V3.66683C12.375 2.61266 11.88 2.521 11.4125 2.521H10.5875C10.12 2.521 9.625 2.61266 9.625 3.66683V19.4793V19.4793Z" fill="#202020"/>
<path d="M6.41667 20.8543H2.75C2.37417 20.8543 2.0625 20.5427 2.0625 20.1668V9.16683C2.0625 7.59016 2.86917 6.646 4.21667 6.646H4.95C6.2975 6.646 7.10417 7.59016 7.10417 9.16683V20.1668C7.10417 20.5427 6.7925 20.8543 6.41667 20.8543ZM3.4375 19.4793H5.72917V9.16683C5.72917 8.021 5.225 8.021 4.95 8.021H4.21667C3.94167 8.021 3.4375 8.021 3.4375 9.16683V19.4793V19.4793Z" fill="#202020"/>
<path d="M19.25 20.854H15.5833C15.2075 20.854 14.8958 20.5423 14.8958 20.1665V13.7498C14.8958 12.1732 15.7025 11.229 17.05 11.229H17.7833C19.1308 11.229 19.9375 12.1732 19.9375 13.7498V20.1665C19.9375 20.5423 19.6258 20.854 19.25 20.854ZM16.2708 19.479H18.5625V13.7498C18.5625 12.604 18.0583 12.604 17.7833 12.604H17.05C16.775 12.604 16.2708 12.604 16.2708 13.7498V19.479V19.479Z" fill="#202020"/>
</svg>
